<?xml version="1.0" encoding="UTF-8" standalone="no"?>
<!DOCTYPE svg PUBLIC "-//W3C//DTD SVG 1.1//EN"
 "http://www.w3.org/Graphics/SVG/1.1/DTD/svg11.dtd">
<!-- Generated by graphviz version 14.1.2 (0)
 -->
<!-- Title: api.h Pages: 1 -->
<svg width="1243pt" height="155pt"
 viewBox="0.00 0.00 1243.00 155.00" xmlns="http://www.w3.org/2000/svg" xmlns:xlink="http://www.w3.org/1999/xlink">
<g id="graph0" class="graph" transform="scale(1 1) rotate(0) translate(4 151)">
<title>api.h</title>
<!-- Node1 -->
<g id="Node000001" class="node">
<title>Node1</title>
<g id="a_Node000001"><a xlink:title=" ">
<polygon fill="#999999" stroke="#666666" points="612.12,-147 572.12,-147 572.12,-126.25 612.12,-126.25 612.12,-147"/>
<text xml:space="preserve" text-anchor="middle" x="592.12" y="-133.5" font-family="Helvetica,sans-Serif" font-size="10.00">api.h</text>
</a>
</g>
</g>
<!-- Node2 -->
<g id="Node000002" class="node">
<title>Node2</title>
<g id="a_Node000002"><a xlink:href="MUSIC__lin__array_8h.html" target="_top" xlink:title=" ">
<polygon fill="white" stroke="#666666" points="138,-90.25 34.25,-90.25 34.25,-69.5 138,-69.5 138,-90.25"/>
<text xml:space="preserve" text-anchor="middle" x="86.12" y="-76.75" font-family="Helvetica,sans-Serif" font-size="10.00">MUSIC_lin_array.h</text>
</a>
</g>
</g>
<!-- Node1&#45;&gt;Node2 -->
<g id="edge1_Node000001_Node000002" class="edge">
<title>Node1&#45;&gt;Node2</title>
<g id="a_edge1_Node000001_Node000002"><a xlink:title=" ">
<path fill="none" stroke="#63b8ff" d="M560.67,-132.52C489.47,-125.46 310.57,-107.46 161.12,-90.25 153.69,-89.39 145.85,-88.46 138.16,-87.51"/>
<polygon fill="#63b8ff" stroke="#63b8ff" points="560.11,-135.99 570.41,-133.49 560.8,-129.02 560.11,-135.99"/>
</a>
</g>
</g>
<!-- Node4 -->
<g id="Node000004" class="node">
<title>Node4</title>
<g id="a_Node000004"><a xlink:href="MUSIC__uca_8h.html" target="_top" xlink:title=" ">
<polygon fill="white" stroke="#666666" points="250,-90.25 170.25,-90.25 170.25,-69.5 250,-69.5 250,-90.25"/>
<text xml:space="preserve" text-anchor="middle" x="210.12" y="-76.75" font-family="Helvetica,sans-Serif" font-size="10.00">MUSIC_uca.h</text>
</a>
</g>
</g>
<!-- Node1&#45;&gt;Node4 -->
<g id="edge3_Node000001_Node000004" class="edge">
<title>Node1&#45;&gt;Node4</title>
<g id="a_edge3_Node000001_Node000004"><a xlink:title=" ">
<path fill="none" stroke="#63b8ff" d="M560.54,-131.52C502.27,-123.89 373.96,-106.78 266.12,-90.25 261.06,-89.47 255.74,-88.63 250.48,-87.77"/>
<polygon fill="#63b8ff" stroke="#63b8ff" points="560.01,-134.98 570.38,-132.81 560.91,-128.04 560.01,-134.98"/>
</a>
</g>
</g>
<!-- Node6 -->
<g id="Node000006" class="node">
<title>Node6</title>
<g id="a_Node000006"><a xlink:href="antenna__correction_8h.html" target="_top" xlink:title=" ">
<polygon fill="white" stroke="#666666" points="393.5,-90.25 274.75,-90.25 274.75,-69.5 393.5,-69.5 393.5,-90.25"/>
<text xml:space="preserve" text-anchor="middle" x="334.12" y="-76.75" font-family="Helvetica,sans-Serif" font-size="10.00">antenna_correction.h</text>
</a>
</g>
</g>
<!-- Node1&#45;&gt;Node6 -->
<g id="edge5_Node000001_Node000006" class="edge">
<title>Node1&#45;&gt;Node6</title>
<g id="a_edge5_Node000001_Node000006"><a xlink:title=" ">
<path fill="none" stroke="#63b8ff" d="M560.78,-128.97C515.77,-119.42 432.54,-101.76 380.43,-90.7"/>
<polygon fill="#63b8ff" stroke="#63b8ff" points="559.89,-132.36 570.4,-131.01 561.34,-125.51 559.89,-132.36"/>
</a>
</g>
</g>
<!-- Node8 -->
<g id="Node000008" class="node">
<title>Node8</title>
<g id="a_Node000008"><a xlink:href="autocorrelate_8h.html" target="_top" xlink:title=" ">
<polygon fill="white" stroke="#666666" points="512.25,-90.25 422,-90.25 422,-69.5 512.25,-69.5 512.25,-90.25"/>
<text xml:space="preserve" text-anchor="middle" x="467.12" y="-76.75" font-family="Helvetica,sans-Serif" font-size="10.00">autocorrelate.h</text>
</a>
</g>
</g>
<!-- Node1&#45;&gt;Node8 -->
<g id="edge7_Node000001_Node000008" class="edge">
<title>Node1&#45;&gt;Node8</title>
<g id="a_edge7_Node000001_Node000008"><a xlink:title=" ">
<path fill="none" stroke="#63b8ff" d="M561.51,-122.22C539.27,-112.47 509.67,-99.51 489.59,-90.72"/>
<polygon fill="#63b8ff" stroke="#63b8ff" points="559.81,-125.29 570.38,-126.1 562.62,-118.88 559.81,-125.29"/>
</a>
</g>
</g>
<!-- Node10 -->
<g id="Node000010" class="node">
<title>Node10</title>
<g id="a_Node000010"><a xlink:href="calibrate__lin__array_8h.html" target="_top" xlink:title=" ">
<polygon fill="white" stroke="#666666" points="649.25,-90.25 535,-90.25 535,-69.5 649.25,-69.5 649.25,-90.25"/>
<text xml:space="preserve" text-anchor="middle" x="592.12" y="-76.75" font-family="Helvetica,sans-Serif" font-size="10.00">calibrate_lin_array.h</text>
</a>
</g>
</g>
<!-- Node1&#45;&gt;Node10 -->
<g id="edge9_Node000001_Node000010" class="edge">
<title>Node1&#45;&gt;Node10</title>
<g id="a_edge9_Node000001_Node000010"><a xlink:title=" ">
<path fill="none" stroke="#63b8ff" d="M592.12,-114.38C592.12,-106.16 592.12,-97.18 592.12,-90.58"/>
<polygon fill="#63b8ff" stroke="#63b8ff" points="588.63,-114.32 592.13,-124.32 595.63,-114.32 588.63,-114.32"/>
</a>
</g>
</g>
<!-- Node12 -->
<g id="Node000012" class="node">
<title>Node12</title>
<g id="a_Node000012"><a xlink:href="find__local__max_8h.html" target="_top" xlink:title=" ">
<polygon fill="white" stroke="#666666" points="770.38,-90.25 671.88,-90.25 671.88,-69.5 770.38,-69.5 770.38,-90.25"/>
<text xml:space="preserve" text-anchor="middle" x="721.12" y="-76.75" font-family="Helvetica,sans-Serif" font-size="10.00">find_local_max.h</text>
</a>
</g>
</g>
<!-- Node1&#45;&gt;Node12 -->
<g id="edge11_Node000001_Node000012" class="edge">
<title>Node1&#45;&gt;Node12</title>
<g id="a_edge11_Node000001_Node000012"><a xlink:title=" ">
<path fill="none" stroke="#63b8ff" d="M622.87,-122.57C646,-112.76 677.19,-99.52 698.17,-90.62"/>
<polygon fill="#63b8ff" stroke="#63b8ff" points="621.8,-119.23 613.96,-126.36 624.53,-125.67 621.8,-119.23"/>
</a>
</g>
</g>
<!-- Node14 -->
<g id="Node000014" class="node">
<title>Node14</title>
<g id="a_Node000014"><a xlink:href="power__detection__cpp_8h.html" target="_top" xlink:title=" ">
<polygon fill="white" stroke="#666666" points="920.38,-90.25 791.88,-90.25 791.88,-69.5 920.38,-69.5 920.38,-90.25"/>
<text xml:space="preserve" text-anchor="middle" x="856.12" y="-76.75" font-family="Helvetica,sans-Serif" font-size="10.00">power_detection_cpp.h</text>
</a>
</g>
</g>
<!-- Node1&#45;&gt;Node14 -->
<g id="edge13_Node000001_Node000014" class="edge">
<title>Node1&#45;&gt;Node14</title>
<g id="a_edge13_Node000001_Node000014"><a xlink:title=" ">
<path fill="none" stroke="#63b8ff" d="M623.41,-129.14C669.22,-119.64 754.91,-101.87 808.55,-90.74"/>
<polygon fill="#63b8ff" stroke="#63b8ff" points="622.97,-125.65 613.88,-131.11 624.39,-132.51 622.97,-125.65"/>
</a>
</g>
</g>
<!-- Node16 -->
<g id="Node000016" class="node">
<title>Node16</title>
<g id="a_Node000016"><a xlink:href="rootMUSIC__linear__array_8h.html" target="_top" xlink:title=" ">
<polygon fill="white" stroke="#666666" points="1078.62,-90.25 939.62,-90.25 939.62,-69.5 1078.62,-69.5 1078.62,-90.25"/>
<text xml:space="preserve" text-anchor="middle" x="1009.12" y="-76.75" font-family="Helvetica,sans-Serif" font-size="10.00">rootMUSIC_linear_array.h</text>
</a>
</g>
</g>
<!-- Node1&#45;&gt;Node16 -->
<g id="edge15_Node000001_Node000016" class="edge">
<title>Node1&#45;&gt;Node16</title>
<g id="a_edge15_Node000001_Node000016"><a xlink:title=" ">
<path fill="none" stroke="#63b8ff" d="M623.53,-131.5C690.27,-122.74 847.62,-102.08 939.36,-90.03"/>
<polygon fill="#63b8ff" stroke="#63b8ff" points="623.48,-127.98 614.02,-132.75 624.39,-134.92 623.48,-127.98"/>
</a>
</g>
</g>
<!-- Node18 -->
<g id="Node000018" class="node">
<title>Node18</title>
<g id="a_Node000018"><a xlink:href="signal__replay__cpp_8h.html" target="_top" xlink:title=" ">
<polygon fill="white" stroke="#666666" points="1215.5,-90.25 1102.75,-90.25 1102.75,-69.5 1215.5,-69.5 1215.5,-90.25"/>
<text xml:space="preserve" text-anchor="middle" x="1159.12" y="-76.75" font-family="Helvetica,sans-Serif" font-size="10.00">signal_replay_cpp.h</text>
</a>
</g>
</g>
<!-- Node1&#45;&gt;Node18 -->
<g id="edge17_Node000001_Node000018" class="edge">
<title>Node1&#45;&gt;Node18</title>
<g id="a_edge17_Node000001_Node000018"><a xlink:title=" ">
<path fill="none" stroke="#63b8ff" d="M623.48,-133.2C701.89,-127.02 912.79,-109.84 1088.12,-90.25 1092.82,-89.73 1097.69,-89.15 1102.57,-88.55"/>
<polygon fill="#63b8ff" stroke="#63b8ff" points="623.68,-129.67 613.98,-133.94 624.22,-136.65 623.68,-129.67"/>
</a>
</g>
</g>
<!-- Node3 -->
<g id="Node000003" class="node">
<title>Node3</title>
<g id="a_Node000003"><a xlink:href="MUSIC__lin__array__impl_8h.html" target="_top" xlink:title=" ">
<polygon fill="white" stroke="#666666" points="132.25,-27.12 0,-27.12 0,-6.38 132.25,-6.38 132.25,-27.12"/>
<text xml:space="preserve" text-anchor="middle" x="66.12" y="-13.62" font-family="Helvetica,sans-Serif" font-size="10.00">MUSIC_lin_array_impl.h</text>
</a>
</g>
</g>
<!-- Node2&#45;&gt;Node3 -->
<g id="edge2_Node000002_Node000003" class="edge">
<title>Node2&#45;&gt;Node3</title>
<g id="a_edge2_Node000002_Node000003"><a xlink:title=" ">
<path fill="none" stroke="#63b8ff" d="M79.39,-58.29C75.97,-47.83 71.97,-35.61 69.26,-27.34"/>
<polygon fill="#63b8ff" stroke="#63b8ff" points="76,-59.2 82.44,-67.62 82.66,-57.02 76,-59.2"/>
</a>
</g>
</g>
<!-- Node5 -->
<g id="Node000005" class="node">
<title>Node5</title>
<g id="a_Node000005"><a xlink:href="MUSIC__uca__impl_8h.html" target="_top" xlink:title=" ">
<polygon fill="white" stroke="#666666" points="257.5,-27.12 150.75,-27.12 150.75,-6.38 257.5,-6.38 257.5,-27.12"/>
<text xml:space="preserve" text-anchor="middle" x="204.12" y="-13.62" font-family="Helvetica,sans-Serif" font-size="10.00">MUSIC_uca_impl.h</text>
</a>
</g>
</g>
<!-- Node4&#45;&gt;Node5 -->
<g id="edge4_Node000004_Node000005" class="edge">
<title>Node4&#45;&gt;Node5</title>
<g id="a_edge4_Node000004_Node000005"><a xlink:title=" ">
<path fill="none" stroke="#63b8ff" d="M208.04,-57.61C207.03,-47.3 205.86,-35.43 205.07,-27.34"/>
<polygon fill="#63b8ff" stroke="#63b8ff" points="204.55,-57.94 209.01,-67.55 211.52,-57.25 204.55,-57.94"/>
</a>
</g>
</g>
<!-- Node7 -->
<g id="Node000007" class="node">
<title>Node7</title>
<g id="a_Node000007"><a xlink:href="antenna__correction__impl_8h.html" target="_top" xlink:title=" ">
<polygon fill="white" stroke="#666666" points="385,-33.5 275.25,-33.5 275.25,0 385,0 385,-33.5"/>
<text xml:space="preserve" text-anchor="start" x="283.25" y="-20" font-family="Helvetica,sans-Serif" font-size="10.00">antenna_correction</text>
<text xml:space="preserve" text-anchor="middle" x="330.12" y="-7.25" font-family="Helvetica,sans-Serif" font-size="10.00">_impl.h</text>
</a>
</g>
</g>
<!-- Node6&#45;&gt;Node7 -->
<g id="edge6_Node000006_Node000007" class="edge">
<title>Node6&#45;&gt;Node7</title>
<g id="a_edge6_Node000006_Node000007"><a xlink:title=" ">
<path fill="none" stroke="#63b8ff" d="M332.73,-57.59C332.23,-49.85 331.66,-41.22 331.19,-33.98"/>
<polygon fill="#63b8ff" stroke="#63b8ff" points="329.24,-57.79 333.38,-67.54 336.22,-57.34 329.24,-57.79"/>
</a>
</g>
</g>
<!-- Node9 -->
<g id="Node000009" class="node">
<title>Node9</title>
<g id="a_Node000009"><a xlink:href="autocorrelate__impl_8h.html" target="_top" xlink:title=" ">
<polygon fill="white" stroke="#666666" points="520.75,-27.12 403.5,-27.12 403.5,-6.38 520.75,-6.38 520.75,-27.12"/>
<text xml:space="preserve" text-anchor="middle" x="462.12" y="-13.62" font-family="Helvetica,sans-Serif" font-size="10.00">autocorrelate_impl.h</text>
</a>
</g>
</g>
<!-- Node8&#45;&gt;Node9 -->
<g id="edge8_Node000008_Node000009" class="edge">
<title>Node8&#45;&gt;Node9</title>
<g id="a_edge8_Node000008_Node000009"><a xlink:title=" ">
<path fill="none" stroke="#63b8ff" d="M465.39,-57.61C464.54,-47.3 463.57,-35.43 462.91,-27.34"/>
<polygon fill="#63b8ff" stroke="#63b8ff" points="461.89,-57.86 466.2,-67.55 468.87,-57.29 461.89,-57.86"/>
</a>
</g>
</g>
<!-- Node11 -->
<g id="Node000011" class="node">
<title>Node11</title>
<g id="a_Node000011"><a xlink:href="calibrate__lin__array__impl_8h.html" target="_top" xlink:title=" ">
<polygon fill="white" stroke="#666666" points="645.5,-33.5 538.75,-33.5 538.75,0 645.5,0 645.5,-33.5"/>
<text xml:space="preserve" text-anchor="start" x="546.75" y="-20" font-family="Helvetica,sans-Serif" font-size="10.00">calibrate_lin_array</text>
<text xml:space="preserve" text-anchor="middle" x="592.12" y="-7.25" font-family="Helvetica,sans-Serif" font-size="10.00">_impl.h</text>
</a>
</g>
</g>
<!-- Node10&#45;&gt;Node11 -->
<g id="edge10_Node000010_Node000011" class="edge">
<title>Node10&#45;&gt;Node11</title>
<g id="a_edge10_Node000010_Node000011"><a xlink:title=" ">
<path fill="none" stroke="#63b8ff" d="M592.12,-57.59C592.12,-49.85 592.12,-41.22 592.12,-33.98"/>
<polygon fill="#63b8ff" stroke="#63b8ff" points="588.63,-57.54 592.13,-67.54 595.63,-57.54 588.63,-57.54"/>
</a>
</g>
</g>
<!-- Node13 -->
<g id="Node000013" class="node">
<title>Node13</title>
<g id="a_Node000013"><a xlink:href="find__local__max__impl_8h.html" target="_top" xlink:title=" ">
<polygon fill="white" stroke="#666666" points="788.88,-27.12 663.38,-27.12 663.38,-6.38 788.88,-6.38 788.88,-27.12"/>
<text xml:space="preserve" text-anchor="middle" x="726.12" y="-13.62" font-family="Helvetica,sans-Serif" font-size="10.00">find_local_max_impl.h</text>
</a>
</g>
</g>
<!-- Node12&#45;&gt;Node13 -->
<g id="edge12_Node000012_Node000013" class="edge">
<title>Node12&#45;&gt;Node13</title>
<g id="a_edge12_Node000012_Node000013"><a xlink:title=" ">
<path fill="none" stroke="#63b8ff" d="M722.86,-57.61C723.71,-47.3 724.68,-35.43 725.34,-27.34"/>
<polygon fill="#63b8ff" stroke="#63b8ff" points="719.38,-57.29 722.05,-67.55 726.36,-57.86 719.38,-57.29"/>
</a>
</g>
</g>
<!-- Node15 -->
<g id="Node000015" class="node">
<title>Node15</title>
<g id="a_Node000015"><a xlink:href="power__detection__cpp__impl_8h.html" target="_top" xlink:title=" ">
<polygon fill="white" stroke="#666666" points="926.88,-33.5 807.38,-33.5 807.38,0 926.88,0 926.88,-33.5"/>
<text xml:space="preserve" text-anchor="start" x="815.38" y="-20" font-family="Helvetica,sans-Serif" font-size="10.00">power_detection_cpp</text>
<text xml:space="preserve" text-anchor="middle" x="867.12" y="-7.25" font-family="Helvetica,sans-Serif" font-size="10.00">_impl.h</text>
</a>
</g>
</g>
<!-- Node14&#45;&gt;Node15 -->
<g id="edge14_Node000014_Node000015" class="edge">
<title>Node14&#45;&gt;Node15</title>
<g id="a_edge14_Node000014_Node000015"><a xlink:title=" ">
<path fill="none" stroke="#63b8ff" d="M859.9,-57.87C861.31,-50.05 862.89,-41.31 864.2,-33.98"/>
<polygon fill="#63b8ff" stroke="#63b8ff" points="856.49,-57.1 858.16,-67.56 863.38,-58.34 856.49,-57.1"/>
</a>
</g>
</g>
<!-- Node17 -->
<g id="Node000017" class="node">
<title>Node17</title>
<g id="a_Node000017"><a xlink:href="rootMUSIC__linear__array__impl_8h.html" target="_top" xlink:title=" ">
<polygon fill="white" stroke="#666666" points="1076.88,-33.5 945.38,-33.5 945.38,0 1076.88,0 1076.88,-33.5"/>
<text xml:space="preserve" text-anchor="start" x="953.38" y="-20" font-family="Helvetica,sans-Serif" font-size="10.00">rootMUSIC_linear_array</text>
<text xml:space="preserve" text-anchor="middle" x="1011.12" y="-7.25" font-family="Helvetica,sans-Serif" font-size="10.00">_impl.h</text>
</a>
</g>
</g>
<!-- Node16&#45;&gt;Node17 -->
<g id="edge16_Node000016_Node000017" class="edge">
<title>Node16&#45;&gt;Node17</title>
<g id="a_edge16_Node000016_Node000017"><a xlink:title=" ">
<path fill="none" stroke="#63b8ff" d="M1009.82,-57.59C1010.07,-49.85 1010.36,-41.22 1010.59,-33.98"/>
<polygon fill="#63b8ff" stroke="#63b8ff" points="1006.32,-57.43 1009.5,-67.54 1013.32,-57.66 1006.32,-57.43"/>
</a>
</g>
</g>
<!-- Node19 -->
<g id="Node000019" class="node">
<title>Node19</title>
<g id="a_Node000019"><a xlink:href="signal__replay__cpp__impl_8h.html" target="_top" xlink:title=" ">
<polygon fill="white" stroke="#666666" points="1235,-27.12 1095.25,-27.12 1095.25,-6.38 1235,-6.38 1235,-27.12"/>
<text xml:space="preserve" text-anchor="middle" x="1165.12" y="-13.62" font-family="Helvetica,sans-Serif" font-size="10.00">signal_replay_cpp_impl.h</text>
</a>
</g>
</g>
<!-- Node18&#45;&gt;Node19 -->
<g id="edge18_Node000018_Node000019" class="edge">
<title>Node18&#45;&gt;Node19</title>
<g id="a_edge18_Node000018_Node000019"><a xlink:title=" ">
<path fill="none" stroke="#63b8ff" d="M1161.21,-57.61C1162.22,-47.3 1163.39,-35.43 1164.18,-27.34"/>
<polygon fill="#63b8ff" stroke="#63b8ff" points="1157.73,-57.25 1160.24,-67.55 1164.7,-57.94 1157.73,-57.25"/>
</a>
</g>
</g>
</g>
</svg>
