<?xml version="1.0" encoding="UTF-8" standalone="no"?>
<!DOCTYPE svg PUBLIC "-//W3C//DTD SVG 1.1//EN"
 "http://www.w3.org/Graphics/SVG/1.1/DTD/svg11.dtd">
<!-- Generated by graphviz version 14.1.2 (0)
 -->
<!-- Title: find_local_max_impl.h Pages: 1 -->
<svg width="362pt" height="212pt"
 viewBox="0.00 0.00 362.00 212.00" xmlns="http://www.w3.org/2000/svg" xmlns:xlink="http://www.w3.org/1999/xlink">
<g id="graph0" class="graph" transform="scale(1 1) rotate(0) translate(4 207.75)">
<title>find_local_max_impl.h</title>
<!-- Node1 -->
<g id="Node000001" class="node">
<title>Node1</title>
<g id="a_Node000001"><a xlink:title=" ">
<polygon fill="#999999" stroke="#666666" points="302.75,-203.75 177.25,-203.75 177.25,-183 302.75,-183 302.75,-203.75"/>
<text xml:space="preserve" text-anchor="middle" x="240" y="-190.25" font-family="Helvetica,sans-Serif" font-size="10.00">find_local_max_impl.h</text>
</a>
</g>
</g>
<!-- Node2 -->
<g id="Node000002" class="node">
<title>Node2</title>
<g id="a_Node000002"><a xlink:href="find__local__max_8h.html" target="_top" xlink:title=" ">
<polygon fill="white" stroke="#666666" points="190.62,-147 61.38,-147 61.38,-113.5 190.62,-113.5 190.62,-147"/>
<text xml:space="preserve" text-anchor="start" x="69.38" y="-133.5" font-family="Helvetica,sans-Serif" font-size="10.00">gnuradio/doa/find_local</text>
<text xml:space="preserve" text-anchor="middle" x="126" y="-120.75" font-family="Helvetica,sans-Serif" font-size="10.00">_max.h</text>
</a>
</g>
</g>
<!-- Node1&#45;&gt;Node2 -->
<g id="edge1_Node000001_Node000002" class="edge">
<title>Node1&#45;&gt;Node2</title>
<g id="a_edge1_Node000001_Node000002"><a xlink:title=" ">
<path fill="none" stroke="#63b8ff" d="M221.68,-182.55C206.75,-174.54 185.1,-162.94 166.17,-152.79"/>
<polygon fill="#63b8ff" stroke="#63b8ff" points="168.08,-149.84 157.61,-148.2 164.77,-156.01 168.08,-149.84"/>
</a>
</g>
</g>
<!-- Node6 -->
<g id="Node000006" class="node">
<title>Node6</title>
<g id="a_Node000006"><a xlink:title=" ">
<polygon fill="#e0e0e0" stroke="#999999" points="271.25,-140.62 208.75,-140.62 208.75,-119.88 271.25,-119.88 271.25,-140.62"/>
<text xml:space="preserve" text-anchor="middle" x="240" y="-127.12" font-family="Helvetica,sans-Serif" font-size="10.00">armadillo</text>
</a>
</g>
</g>
<!-- Node1&#45;&gt;Node6 -->
<g id="edge5_Node000001_Node000006" class="edge">
<title>Node1&#45;&gt;Node6</title>
<g id="a_edge5_Node000001_Node000006"><a xlink:title=" ">
<path fill="none" stroke="#63b8ff" d="M240,-182.55C240,-174.4 240,-162.51 240,-152.23"/>
<polygon fill="#63b8ff" stroke="#63b8ff" points="243.5,-152.36 240,-142.36 236.5,-152.36 243.5,-152.36"/>
</a>
</g>
</g>
<!-- Node7 -->
<g id="Node000007" class="node">
<title>Node7</title>
<g id="a_Node000007"><a xlink:title=" ">
<polygon fill="#e0e0e0" stroke="#999999" points="354.38,-140.62 289.62,-140.62 289.62,-119.88 354.38,-119.88 354.38,-140.62"/>
<text xml:space="preserve" text-anchor="middle" x="322" y="-127.12" font-family="Helvetica,sans-Serif" font-size="10.00">functional</text>
</a>
</g>
</g>
<!-- Node1&#45;&gt;Node7 -->
<g id="edge6_Node000001_Node000007" class="edge">
<title>Node1&#45;&gt;Node7</title>
<g id="a_edge6_Node000001_Node000007"><a xlink:title=" ">
<path fill="none" stroke="#63b8ff" d="M253.17,-182.55C265.73,-173.2 284.87,-158.93 299.78,-147.81"/>
<polygon fill="#63b8ff" stroke="#63b8ff" points="301.72,-150.73 307.64,-141.95 297.54,-145.12 301.72,-150.73"/>
</a>
</g>
</g>
<!-- Node3 -->
<g id="Node000003" class="node">
<title>Node3</title>
<g id="a_Node000003"><a xlink:href="api_8h.html" target="_top" xlink:title=" ">
<polygon fill="white" stroke="#666666" points="112.38,-77.5 5.62,-77.5 5.62,-56.75 112.38,-56.75 112.38,-77.5"/>
<text xml:space="preserve" text-anchor="middle" x="59" y="-64" font-family="Helvetica,sans-Serif" font-size="10.00">gnuradio/doa/api.h</text>
</a>
</g>
</g>
<!-- Node2&#45;&gt;Node3 -->
<g id="edge2_Node000002_Node000003" class="edge">
<title>Node2&#45;&gt;Node3</title>
<g id="a_edge2_Node000002_Node000003"><a xlink:title=" ">
<path fill="none" stroke="#63b8ff" d="M108.4,-113.19C99.11,-104.72 87.71,-94.31 78.2,-85.64"/>
<polygon fill="#63b8ff" stroke="#63b8ff" points="80.65,-83.14 70.91,-78.99 75.93,-88.31 80.65,-83.14"/>
</a>
</g>
</g>
<!-- Node5 -->
<g id="Node000005" class="node">
<title>Node5</title>
<g id="a_Node000005"><a xlink:title=" ">
<polygon fill="#e0e0e0" stroke="#999999" points="255.38,-77.5 130.62,-77.5 130.62,-56.75 255.38,-56.75 255.38,-77.5"/>
<text xml:space="preserve" text-anchor="middle" x="193" y="-64" font-family="Helvetica,sans-Serif" font-size="10.00">gnuradio/sync_block.h</text>
</a>
</g>
</g>
<!-- Node2&#45;&gt;Node5 -->
<g id="edge4_Node000002_Node000005" class="edge">
<title>Node2&#45;&gt;Node5</title>
<g id="a_edge4_Node000002_Node000005"><a xlink:title=" ">
<path fill="none" stroke="#63b8ff" d="M143.6,-113.19C152.89,-104.72 164.29,-94.31 173.8,-85.64"/>
<polygon fill="#63b8ff" stroke="#63b8ff" points="176.07,-88.31 181.09,-78.99 171.35,-83.14 176.07,-88.31"/>
</a>
</g>
</g>
<!-- Node4 -->
<g id="Node000004" class="node">
<title>Node4</title>
<g id="a_Node000004"><a xlink:title=" ">
<polygon fill="#e0e0e0" stroke="#999999" points="118,-20.75 0,-20.75 0,0 118,0 118,-20.75"/>
<text xml:space="preserve" text-anchor="middle" x="59" y="-7.25" font-family="Helvetica,sans-Serif" font-size="10.00">gnuradio/attributes.h</text>
</a>
</g>
</g>
<!-- Node3&#45;&gt;Node4 -->
<g id="edge3_Node000003_Node000004" class="edge">
<title>Node3&#45;&gt;Node4</title>
<g id="a_edge3_Node000003_Node000004"><a xlink:title=" ">
<path fill="none" stroke="#63b8ff" d="M59,-56.34C59,-49.72 59,-40.72 59,-32.52"/>
<polygon fill="#63b8ff" stroke="#63b8ff" points="62.5,-32.59 59,-22.59 55.5,-32.59 62.5,-32.59"/>
</a>
</g>
</g>
</g>
</svg>
