<?xml version="1.0" encoding="UTF-8" standalone="no"?>
<!DOCTYPE svg PUBLIC "-//W3C//DTD SVG 1.1//EN"
 "http://www.w3.org/Graphics/SVG/1.1/DTD/svg11.dtd">
<!-- Generated by graphviz version 14.1.2 (0)
 -->
<!-- Title: Graphical Class Hierarchy Pages: 1 -->
<svg width="407pt" height="29pt"
 viewBox="0.00 0.00 407.00 29.00" xmlns="http://www.w3.org/2000/svg" xmlns:xlink="http://www.w3.org/1999/xlink">
<g id="graph0" class="graph" transform="scale(1 1) rotate(0) translate(4 24.75)">
<title>Graphical Class Hierarchy</title>
<!-- Node0 -->
<g id="Node000000" class="node">
<title>Node0</title>
<g id="a_Node000000"><a xlink:title=" ">
<polygon fill="#e0e0e0" stroke="#999999" points="58,-20.75 0,-20.75 0,0 58,0 58,-20.75"/>
<text xml:space="preserve" text-anchor="middle" x="29" y="-7.25" font-family="Helvetica,sans-Serif" font-size="10.00">gr::block</text>
</a>
</g>
</g>
<!-- Node1 -->
<g id="Node000001" class="node">
<title>Node1</title>
<g id="a_Node000001"><a xlink:href="classgr_1_1doa_1_1autocorrelate.html" target="_top" xlink:title="&lt;+description of block+&gt;">
<polygon fill="white" stroke="#666666" points="215,-20.75 94,-20.75 94,0 215,0 215,-20.75"/>
<text xml:space="preserve" text-anchor="middle" x="154.5" y="-7.25" font-family="Helvetica,sans-Serif" font-size="10.00">gr::doa::autocorrelate</text>
</a>
</g>
</g>
<!-- Node0&#45;&gt;Node1 -->
<g id="edge1_Node000000_Node000001" class="edge">
<title>Node0&#45;&gt;Node1</title>
<g id="a_edge1_Node000000_Node000001"><a xlink:title=" ">
<path fill="none" stroke="#63b8ff" d="M69.78,-10.38C77.39,-10.38 85.5,-10.38 93.57,-10.38"/>
<polygon fill="#63b8ff" stroke="#63b8ff" points="69.85,-6.88 59.85,-10.38 69.85,-13.88 69.85,-6.88"/>
</a>
</g>
</g>
<!-- Node2 -->
<g id="Node000002" class="node">
<title>Node2</title>
<g id="a_Node000002"><a xlink:href="classgr_1_1doa_1_1autocorrelate__impl.html" target="_top" xlink:title=" ">
<polygon fill="white" stroke="#666666" points="399,-20.75 251,-20.75 251,0 399,0 399,-20.75"/>
<text xml:space="preserve" text-anchor="middle" x="325" y="-7.25" font-family="Helvetica,sans-Serif" font-size="10.00">gr::doa::autocorrelate_impl</text>
</a>
</g>
</g>
<!-- Node1&#45;&gt;Node2 -->
<g id="edge2_Node000001_Node000002" class="edge">
<title>Node1&#45;&gt;Node2</title>
<g id="a_edge2_Node000001_Node000002"><a xlink:title=" ">
<path fill="none" stroke="#63b8ff" d="M226.83,-10.38C234.74,-10.38 242.8,-10.38 250.74,-10.38"/>
<polygon fill="#63b8ff" stroke="#63b8ff" points="226.89,-6.88 216.89,-10.38 226.89,-13.88 226.89,-6.88"/>
</a>
</g>
</g>
</g>
</svg>
